# xmcd
#
# Track frame offsets:
#	150
#	19889
#	31177
#	48354
#	58082
#	71154
#	84687
#	98526
#	111088
#	122935
#	142526
#	162352
#	175768
#	186458
#
# Disc length: 2681 seconds
#
# Revision: 1
# Processed by: cddbd v1.5.2PL0 Copyright (c) Steve Scherf et al.
# Submitted via: audiograbber 1.80
#
DISCID=bb0a770e
DTITLE=White Mountain Bluegrass - Oh so many Years
DYEAR=1900
DGENRE=
TTITLE0=Wait till the clouds roll by
TTITLE1=Alone with you
TTITLE2=Lord I can't picture (me without you)
TTITLE3=Let me rest at the end of my journey
TTITLE4=Give me the roses while I live
TTITLE5=The sunny side of life
TTITLE6=The ols home town
TTITLE7=Ole slew foot
TTITLE8=Helen
TTITLE9=Willy Roy the crippled boy
TTITLE10=Washington County
TTITLE11=Valley of peace
TTITLE12=Never get to hold you in my arms anymore
TTITLE13=Oh so many years
EXTD=
EXTT0=
EXTT1=
EXTT2=
EXTT3=
EXTT4=
EXTT5=
EXTT6=
EXTT7=
EXTT8=
EXTT9=
EXTT10=
EXTT11=
EXTT12=
EXTT13=
PLAYORDER=
